<?xml version="1.0" encoding="UTF-8"?>
<svg width="251px" height="55px" viewBox="0 0 251 55" version="1.1" xmlns="http://www.w3.org/2000/svg" xmlns:xlink="http://www.w3.org/1999/xlink">
    <!-- Generator: Sketch 59 (86127) - https://sketch.com -->
    <title>t</title>
    <desc>Created with Sketch.</desc>
    <defs>
        <path d="M0,2.55538292 C0.650412389,9.63186333 2.01625792,13.3666164 4.09757756,13.7597542 L6.04880497,13.5631863 C6.30896993,24.1779069 5.98376861,34.9235122 5.07319127,45.8003247 C8.9756656,48.4212434 12.3577593,48.4867654 15.2195738,45.9968926 C15.2195738,40.6240094 15.4146946,35.1201627 15.804942,29.4851876 C19.057004,27.9126364 22.5041379,27.1263726 26.1464473,27.1263726 C28.0976845,27.1263726 29.0732884,25.9469769 29.0732884,23.5881501 L28.4879202,21.6224709 C28.3634935,20.2436398 27.5844856,19.5242595 26.1508745,19.4643112 L16.7805557,19.2636559 L16.9756785,14.5460259 C17.105761,11.9251072 17.8862441,10.6146675 19.3171514,10.6146675 C25.1708629,9.56630006 31.4797684,8.84555824 38.2440573,8.45242044 C41.1058718,8.84555824 40.4554691,6.02811294 36.2928298,0 C23.804912,0.262091867 11.707423,1.11387766 0,2.55538292 Z M42.9712311,5.90053422 C43.6216435,11.6665553 43.751724,17.6290558 43.3614766,23.7882147 C44.4021364,27.7195927 46.6135053,30.2749501 49.9956498,31.4543635 C51.5566395,31.7164553 53.4428071,31.7164553 55.6542093,31.4543635 C59.8168486,29.4886745 61.898137,26.2125753 61.898137,21.6259676 C62.0282195,16.2530843 62.3534208,10.6837157 62.8737507,4.91769463 C62.8737507,3.6072353 62.2233481,2.95201546 60.9225233,2.95201546 C59.8818635,2.42783172 58.9062595,2.49335371 57.9956822,3.14858337 C56.1745275,3.54172117 55.3940443,4.52455093 55.6542093,6.09710213 C56.0444567,11.8631232 56.0444567,17.5635358 55.6542093,23.1985109 C53.9631371,25.8194296 52.3371305,25.8849516 50.7761407,23.3950789 C50.3858933,17.3669659 50.320853,11.4044654 50.581018,5.50739838 C50.9712654,3.14857158 50.3208628,2.10021984 48.6297906,2.3623117 C47.3289658,1.83812797 46.2883216,1.90364996 45.5078267,2.55887962 C43.686672,2.68992556 42.8411486,3.80379928 42.9712311,5.90053422 Z M66.8529536,3.86845661 C67.1131185,10.944937 67.1131185,18.2833992 66.8529536,25.8840633 C68.6741082,27.0634767 70.104994,28.5049604 71.1456539,30.2085575 C74.1375509,29.1601901 77.4546043,28.5704922 81.0969137,28.4394463 C82.5278209,28.3084003 83.1131833,27.7842245 82.8530183,26.8669029 L81.0969137,24.1149521 C80.7066662,22.9355387 80.0562636,22.2803188 79.1456862,22.1492729 C77.714779,22.8045026 76.2838932,23.0665905 74.8529859,22.9355446 C74.592821,16.5142938 74.9830626,10.0931394 76.0237224,3.67188869 C76.2838873,2.23038343 76.0237263,1.31307565 75.2432314,0.919937853 C72.7716643,-0.390521481 70.3651746,-0.19395553 68.02369,1.5096416 C67.1131127,2.16487127 66.7228711,2.95113508 66.8529536,3.86845661 Z M86.5603504,6.88773982 C86.8205154,13.9642202 86.8205154,21.3026824 86.5603504,28.9033466 C88.3815051,30.08276 89.8123909,31.5242436 90.8530507,33.2278407 C93.8449477,32.1794733 97.1620011,31.5897754 100.804311,31.4587295 C102.235218,31.3276835 102.82058,30.8035077 102.560415,29.8861861 L100.804311,27.1342353 C100.414063,25.9548219 99.7636604,25.2996021 98.8530831,25.1685561 C97.4221758,25.8237858 95.9912901,26.0858737 94.5603828,25.9548278 C94.3155217,19.9112977 94.6467992,13.8678529 95.5542251,7.82433284 L95.7311192,6.6911719 C95.9912842,5.24966664 95.7311231,4.33235886 94.9506283,3.93922106 C92.4790612,2.62876173 90.0725715,2.82532768 87.7310869,4.52892481 C86.8205095,5.18415448 86.4302679,5.97041829 86.5603504,6.88773982 Z M123.145864,7.12362132 C124.056442,20.2282147 123.991401,33.2670894 122.950742,46.2406369 C122.820659,48.0752799 123.471062,49.0581097 124.901969,49.1891556 C127.113371,49.5822934 129.454821,49.7133374 131.926388,49.5822914 C132.967048,48.7960158 133.357289,47.6821421 133.097124,46.2406369 L133.097124,36.412241 C136.219104,35.6259654 139.861358,35.4293994 144.023998,35.8225372 C143.763833,39.8849612 143.373591,43.6197143 142.853261,47.0269085 C142.202849,48.4684138 142.723171,49.3857216 144.414243,49.7788594 C146.36548,50.1719972 148.381728,50.0409532 150.463048,49.3857235 C151.763873,49.3857235 152.479316,48.5994597 152.609398,47.0269085 C151.438656,33.2670855 151.763857,19.5074689 153.585012,5.7476459 C153.845177,4.30614063 153.194774,3.38883286 151.633785,2.99569506 C149.162217,2.34046539 147.015889,2.60255333 145.194734,3.78196673 C143.503662,3.78196673 142.9183,4.76479649 143.438629,6.73048549 C144.219124,14.2001037 144.414245,21.6040879 144.023998,28.9426601 C140.121523,29.0737061 136.284148,29.401316 132.511756,29.9254997 C132.511756,21.9316978 132.901998,13.9380158 133.682492,5.94421382 C133.682492,3.97852482 132.771929,2.79912911 130.950774,2.40599131 C129.259702,2.01285351 127.633695,2.01285351 126.072705,2.40599131 C123.210891,2.93017504 122.235287,4.50270265 123.145864,7.12362132 Z M160.804553,14.7425938 C155.471172,22.0811661 154.820769,29.9438041 158.853326,38.3307439 C160.674481,40.4274788 163.01593,41.4758305 165.877745,41.4758305 C167.568817,41.4758305 169.454985,41.4103086 171.536304,41.2792626 C173.097294,40.624033 174.268019,37.2824118 175.048514,31.2542988 C175.568843,26.929783 175.243642,22.7363761 174.0729,18.6739521 C173.162322,15.9219875 171.276155,14.2839379 168.41434,13.7597542 C166.463103,12.9734813 164.641976,12.7769127 162.950904,13.1700505 C162.430574,14.3494639 161.715131,14.8736397 160.804553,14.7425938 Z M166.072867,36.1684968 C165.552538,27.5194652 166.1379,21.8845746 167.828972,19.2636559 C168.999714,17.8221506 169.780198,17.8876726 170.170445,19.4602238 L170.228633,20.5356624 C170.641148,28.8367963 170.036389,34.2442581 168.41434,36.7582005 C167.763928,38.8549355 166.983445,38.6583695 166.072867,36.1684968 Z M178.755846,20.5610041 C179.406258,26.3270252 179.536339,32.2895257 179.146091,38.4486846 C180.186751,42.3800626 182.39812,44.93542 185.780264,46.1148334 C187.341254,46.3769253 189.227422,46.3769253 191.438824,46.1148334 C195.601463,44.1491444 197.682751,40.8730452 197.682751,36.2864375 C197.812834,30.9135543 198.138035,25.3441856 198.658365,19.5781646 C198.658365,18.2677052 198.007963,17.6124854 196.707138,17.6124854 C195.666478,17.0883017 194.690874,17.1538236 193.780297,17.8090533 C191.959142,18.2021911 191.178659,19.1850209 191.438824,20.7575721 C191.829071,26.5235931 191.829071,32.2240057 191.438824,37.8589809 C189.747752,40.4798995 188.121745,40.5454215 186.560755,38.0555488 C186.170508,32.0274358 186.105468,26.0649353 186.365632,20.1678683 C186.75588,17.8090415 186.105477,16.7606898 184.414405,17.0227816 C183.11358,16.4985979 182.072936,16.5641199 181.292441,17.2193496 C179.471287,17.3503955 178.625763,18.4642692 178.755846,20.5610041 Z M218.756008,18.7977899 C218.625925,16.2751557 217.585281,14.0146473 215.634044,12.0161968 C215.113714,10.9350678 214.26819,10.4764139 213.097448,10.6402214 C206.072994,12.5076259 202.951062,17.6347211 203.731556,26.0216609 C204.512051,28.1511573 206.138058,29.4124555 208.609625,29.8055933 C212.512099,31.0177682 213.682824,32.6885788 212.121834,34.8180752 L211.731589,35.6043469 C210.951094,36.1612921 209.845409,35.8336821 208.414502,34.6215073 L207.438889,33.6386677 C206.398229,33.0817225 205.552705,32.9506785 204.902293,33.2455318 C204.056757,34.0318074 203.341314,34.8835932 202.755943,35.8009148 C201.5852,36.4889059 201.650241,37.3570722 202.951065,38.4054397 C206.983622,42.4023406 211.796602,42.6152871 217.390148,39.0442854 C221.877994,35.5715682 222.138155,32.098903 218.170639,28.6261858 C216.154361,27.217442 214.138113,26.2182318 212.121834,25.6285251 C210.30068,25.4974791 209.650277,24.0887565 210.170607,21.4023148 C209.975483,20.3539474 210.170604,19.3547371 210.755975,18.4046541 C211.926717,17.1597177 212.837281,17.3726642 213.487694,19.0434998 C214.073065,19.7642525 214.463306,20.5505163 214.65843,21.4023148 C214.65843,23.1386734 215.243792,23.6792298 216.414535,23.0240001 L217.975517,22.8274322 C218.951135,22.8929552 219.406417,22.5653453 219.341376,21.8445926 C219.276334,20.8289867 219.081214,19.8133959 218.756008,18.7977899 Z M224.219444,10.9134508 L225.780426,8.94777159 L237.682913,8.55463576 C239.634151,7.89940609 240.739835,8.55462593 241,10.5203149 L239.243895,12.8791299 L234.56095,14.0585374 C232.739795,14.3206293 231.959312,15.1724151 232.219477,16.6139204 L231.438986,23.1006616 C231.438986,23.8869372 231.894268,24.2145472 232.804845,24.0835012 C235.536577,23.2972256 236.902422,23.8214015 236.902422,25.6560446 L236.902422,26.8354521 L234.86447,27.4469977 C233.621467,27.8255725 232.609726,28.1459035 231.829231,28.4079954 L230.853617,29.9805387 L231.634108,31.1599462 L234.756072,30.9633783 C236.577227,30.5702405 237.487791,31.5530703 237.487791,33.9118971 L236.121931,34.8947367 C233.780447,35.2878745 231.438997,36.0741383 229.097513,37.2535517 L224.414567,33.5187613 C224.674732,25.6560052 224.609692,18.1209771 224.219444,10.9134508 Z" id="path-1"></path>
        <filter x="-0.4%" y="-2.0%" width="101.7%" height="108.0%" filterUnits="objectBoundingBox" id="filter-2">
            <feOffset dx="2" dy="2" in="SourceAlpha" result="shadowOffsetOuter1"></feOffset>
            <feColorMatrix values="0 0 0 0 0.501960784   0 0 0 0 0.807843137   0 0 0 0 0.843137255  0 0 0 0.244126967 0" type="matrix" in="shadowOffsetOuter1"></feColorMatrix>
        </filter>
    </defs>
    <g id="t" stroke="none" stroke-width="1" fill="none" fill-rule="evenodd">
        <g id="FullHouse" fill-rule="nonzero">
            <use fill="black" fill-opacity="1" filter="url(#filter-2)" xlink:href="#path-1"></use>
            <use fill="#80CED7" xlink:href="#path-1"></use>
        </g>
    </g>
</svg>